# xmcd
# Track frame offsets:
# 150
# 15561
# 31959
# 54993
# 68899
#
# Disc length: 1072 seconds
# Revision: 0
# Processed by: cddbd v1.4PL0 Copyright (c) Steve Scherf et al.
# Submitted via: VisiTrax 2.9.5.181 - For more info visit www.synapsa.com
#
DISCID=36042e05
DTITLE=The Young Guns - Demo
DYEAR=2001
DGENRE=Blues
TTITLE0=Domeday, Someway
TTITLE1=Alone as I am
TTITLE2=Shes an upsetter
TTITLE3=Mess around
TTITLE4=O my boogie
EXTD=
EXTT0=
EXTT1=
EXTT2=
EXTT3=
EXTT4=
PLAYORDER=
